<svg xmlns="http://www.w3.org/2000/svg" viewBox="0 0 1200 675" role="img" aria-labelledby="t d">
  <title id="t">MIM capacitor TDDB and plasma damage</title><desc id="d">Abstract technical cover showing a MIM stack, plasma ions, defects and a Weibull trend.</desc>
  <rect width="1200" height="675" fill="#18222c"/>
  <g transform="translate(90 120)"><rect x="0" y="80" width="420" height="70" fill="#d7f36a"/><rect x="0" y="150" width="420" height="115" fill="#f5f5ee"/><rect x="0" y="265" width="420" height="70" fill="#8bd7ff"/><text x="22" y="126" fill="#18222c" font-family="ui-monospace,monospace" font-size="24">TiN</text><text x="22" y="220" fill="#18222c" font-family="ui-monospace,monospace" font-size="24">SiN / 32 nm</text><text x="22" y="309" fill="#18222c" font-family="ui-monospace,monospace" font-size="24">TiN</text></g>
  <g stroke="#ffb36b" stroke-width="5" fill="#ffb36b"><path d="M170 70v100M260 45v125M350 70v100M440 45v125"/><path d="M160 150l10 20 10-20M250 150l10 20 10-20M340 150l10 20 10-20M430 150l10 20 10-20"/></g>
  <g fill="none" stroke="#b9a0ff" stroke-width="7"><path d="M650 500C720 420 760 350 810 310s105-80 250-160"/><path d="M650 535C735 500 830 460 1060 430" opacity=".55"/></g><g fill="#ffb36b"><circle cx="775" cy="354" r="10"/><circle cx="846" cy="278" r="10"/><circle cx="922" cy="226" r="10"/></g>
  <text x="650" y="115" fill="#f5f5ee" font-family="ui-monospace,monospace" font-size="25" letter-spacing="4">WEIBULL TAIL</text><text x="80" y="610" fill="#f5f5ee" font-family="ui-monospace,monospace" font-size="29" letter-spacing="4">PLASMA DAMAGE / TRAPS / TDDB</text>
</svg>
